# xmcd
#
# Track frame offsets:
#	150
#	18147
#	35155
#	52687
#	67864
#	86299
#	99758
#	115957
#	132973
#	147516
#	168992
#	182337
#	201097
#	218584
#	234423
#	247348
#	261271
#	273421
#	291340
#	302617
#	317128
#	332703
#
# Disc length: 4642 seconds
#
# Revision: 3
# Processed by: cddbd v1.5.2PL0 Copyright (c) Steve Scherf et al.
# Submitted via: EZCDAudioConverter 7.1.0.1
#
DISCID=35122016
DTITLE=Various Artist - Les Nocturnes Nashville
DYEAR=2017
DGENRE=Country
TTITLE0=Honky Tonk BadonKadonk - Trace Adkins
TTITLE1=Suds In The Bucket - Sara Evans
TTITLE2=Man! Feel Like A Woman! - Shania Twain
TTITLE3=Let's Live It Up - Paul Brandt
TTITLE4=Automatic - Miranda Lambert
TTITLE5=Don't Ya - Brett Eldredge
TTITLE6=Brandt New Girl Friend - Steve Holy
TTITLE7=Tell Me Why - Wynonna
TTITLE8=I'm Alright - Jo Dee Messina
TTITLE9=Everywhere - Tim MacGraw
TTITLE10=Buy Me A Boat - Chris Janson
TTITLE11=Easy - Sheryl Crow
TTITLE12=Just Go Started Lovin' You - James Otto
TTITLE13=All-American Girl - Carrie Hunderwood
TTITLE14=The Race Is On - Sawyer Brown
TTITLE15=Scratch Me Where I'm Itchn' - Flynnville Train
TTITLE16=Wildflower - The Janedear Girls
TTITLE17=Shuttin' Detroit Down - Jhon Rich
TTITLE18=Eat Sleep Love You Repeat - Rodney Atkins
TTITLE19=Contry - Mo Pitney
TTITLE20=Why Not Me - The Judds
TTITLE21=Summer Wind - The Desert Rose Band
EXTD=
EXTT0=
EXTT1=
EXTT2=
EXTT3=
EXTT4=
EXTT5=
EXTT6=
EXTT7=
EXTT8=
EXTT9=
EXTT10=
EXTT11=
EXTT12=
EXTT13=
EXTT14=
EXTT15=
EXTT16=
EXTT17=
EXTT18=
EXTT19=
EXTT20=
EXTT21=
PLAYORDER=
